<?xml version="1.0" encoding="UTF-8" standalone="no"?>
<!DOCTYPE svg PUBLIC "-//W3C//DTD SVG 1.1//EN" "http://www.w3.org/Graphics/SVG/1.1/DTD/svg11.dtd">
<svg width="100%" height="100%" viewBox="0 0 628 323" version="1.1" xmlns="http://www.w3.org/2000/svg" xmlns:xlink="http://www.w3.org/1999/xlink" xml:space="preserve" xmlns:serif="http://www.serif.com/" style="fill-rule:evenodd;clip-rule:evenodd;stroke-linejoin:round;stroke-miterlimit:2;">
    <g id="Plan-de-travail1" serif:id="Plan de travail1" transform="matrix(1,0,0,1,9.20929,-229.811)">
        <rect x="-9.209" y="229.811" width="627.091" height="322.714" style="fill:none;"/>
        <g transform="matrix(1.46287,0,0,1.46287,-169.864,-68.9623)">
            <g transform="matrix(168.946,0,0,168.946,115.162,338.982)">
                <path d="M0.844,-0.278C0.905,-0.387 0.971,-0.471 1.043,-0.531C1.114,-0.592 1.184,-0.622 1.252,-0.622C1.285,-0.622 1.313,-0.613 1.334,-0.595C1.355,-0.577 1.365,-0.554 1.365,-0.525C1.365,-0.473 1.334,-0.429 1.271,-0.394C1.244,-0.379 1.225,-0.371 1.215,-0.371C1.212,-0.371 1.211,-0.372 1.211,-0.375C1.211,-0.377 1.216,-0.379 1.225,-0.383C1.262,-0.397 1.291,-0.418 1.314,-0.444C1.338,-0.471 1.349,-0.498 1.349,-0.526C1.349,-0.552 1.34,-0.573 1.322,-0.589C1.304,-0.606 1.281,-0.614 1.252,-0.614C1.159,-0.614 1.076,-0.56 1.002,-0.453C0.989,-0.435 0.945,-0.317 0.88,-0.193C0.859,-0.153 0.808,-0.157 0.784,-0.142C0.729,-0.105 0.706,-0.092 0.725,-0.092C0.74,-0.092 0.634,-0.08 0.656,-0.076C0.699,-0.095 0.783,-0.157 0.831,-0.252L0.839,-0.268M0.673,-0.389C0.673,-0.382 0.663,-0.368 0.644,-0.348C0.615,-0.317 0.588,-0.301 0.562,-0.301C0.543,-0.301 0.528,-0.308 0.516,-0.321C0.503,-0.334 0.497,-0.351 0.497,-0.37C0.497,-0.388 0.504,-0.41 0.517,-0.437C0.534,-0.47 0.542,-0.493 0.542,-0.506C0.542,-0.522 0.534,-0.536 0.518,-0.546C0.503,-0.556 0.482,-0.561 0.457,-0.561C0.384,-0.561 0.316,-0.532 0.252,-0.473C0.189,-0.415 0.157,-0.352 0.157,-0.286C0.157,-0.252 0.167,-0.224 0.188,-0.202C0.209,-0.18 0.236,-0.17 0.269,-0.17C0.333,-0.17 0.317,-0.162 0.267,-0.162C0.232,-0.162 0.203,-0.173 0.181,-0.196C0.159,-0.219 0.148,-0.248 0.148,-0.285C0.148,-0.355 0.18,-0.42 0.246,-0.479C0.311,-0.539 0.382,-0.569 0.46,-0.569C0.528,-0.569 0.562,-0.539 0.562,-0.479C0.562,-0.458 0.555,-0.434 0.541,-0.405C0.527,-0.376 0.52,-0.357 0.52,-0.348C0.52,-0.323 0.533,-0.311 0.56,-0.311C0.576,-0.311 0.595,-0.318 0.616,-0.334C0.636,-0.349 0.653,-0.367 0.664,-0.388C0.666,-0.391 0.667,-0.393 0.669,-0.393C0.671,-0.393 0.673,-0.391 0.673,-0.389Z" style="fill:rgb(47,79,79);fill-rule:nonzero;"/>
            </g>
            <g transform="matrix(168.946,0,0,168.946,108.599,343.494)">
                <path d="M0.649,-0.268C0.618,-0.211 0.592,-0.169 0.569,-0.142C0.547,-0.114 0.517,-0.088 0.479,-0.062C0.396,-0.005 0.316,0.023 0.239,0.023C0.194,0.023 0.157,0.013 0.129,-0.006C0.101,-0.025 0.087,-0.049 0.087,-0.08C0.087,-0.096 0.092,-0.11 0.101,-0.122C0.111,-0.133 0.122,-0.139 0.136,-0.139C0.157,-0.139 0.167,-0.128 0.167,-0.107C0.167,-0.097 0.164,-0.088 0.158,-0.08C0.151,-0.073 0.143,-0.069 0.133,-0.069C0.118,-0.069 0.11,-0.076 0.11,-0.092C0.111,-0.1 0.11,-0.104 0.107,-0.104C0.102,-0.104 0.099,-0.095 0.099,-0.078C0.099,-0.051 0.111,-0.03 0.136,-0.012C0.161,0.005 0.193,0.013 0.233,0.013C0.301,0.013 0.361,-0.007 0.413,-0.048C0.465,-0.089 0.523,-0.162 0.589,-0.268L0.595,-0.278C0.599,-0.284 0.606,-0.295 0.615,-0.309C0.683,-0.42 0.748,-0.497 0.808,-0.541C0.821,-0.55 0.838,-0.561 0.859,-0.572C0.88,-0.582 0.893,-0.588 0.898,-0.588C0.9,-0.587 0.901,-0.586 0.901,-0.584C0.901,-0.582 0.898,-0.58 0.891,-0.577C0.851,-0.561 0.815,-0.533 0.784,-0.493C0.752,-0.453 0.709,-0.382 0.654,-0.278" style="fill:rgb(47,79,79);fill-rule:nonzero;"/>
            </g>
            <g transform="matrix(168.946,0,0,168.946,108.599,343.494)">
                <path d="M0.654,-0.278L0.844,-0.278" style="fill:none;fill-rule:nonzero;"/>
            </g>
            <g transform="matrix(168.946,0,0,168.946,139.285,404.92)">
                <path d="M0.936,-0.542C0.936,-0.521 0.921,-0.499 0.892,-0.476C0.919,-0.437 0.932,-0.4 0.932,-0.367C0.932,-0.359 0.93,-0.355 0.925,-0.355C0.921,-0.355 0.919,-0.36 0.919,-0.371C0.919,-0.404 0.908,-0.437 0.885,-0.47C0.838,-0.435 0.773,-0.405 0.692,-0.379C0.611,-0.354 0.539,-0.341 0.476,-0.341C0.467,-0.341 0.46,-0.341 0.453,-0.342C0.401,-0.269 0.375,-0.199 0.375,-0.132C0.375,-0.086 0.389,-0.05 0.418,-0.023C0.446,0.004 0.485,0.017 0.534,0.017C0.627,0.017 0.71,-0.027 0.782,-0.116C0.826,-0.17 0.848,-0.221 0.848,-0.269C0.848,-0.294 0.841,-0.315 0.825,-0.33C0.81,-0.345 0.79,-0.352 0.764,-0.352C0.724,-0.352 0.68,-0.331 0.633,-0.288C0.587,-0.245 0.563,-0.205 0.563,-0.168C0.563,-0.165 0.564,-0.163 0.566,-0.163C0.568,-0.163 0.569,-0.164 0.57,-0.165C0.579,-0.173 0.587,-0.177 0.594,-0.177C0.611,-0.177 0.619,-0.168 0.619,-0.15C0.619,-0.126 0.607,-0.114 0.584,-0.114C0.563,-0.114 0.552,-0.127 0.552,-0.153C0.552,-0.199 0.575,-0.246 0.623,-0.291C0.67,-0.337 0.718,-0.36 0.766,-0.36C0.829,-0.36 0.86,-0.326 0.86,-0.257C0.86,-0.186 0.826,-0.121 0.758,-0.063C0.69,-0.004 0.615,0.025 0.532,0.025C0.475,0.025 0.426,0.006 0.387,-0.033C0.348,-0.072 0.328,-0.12 0.328,-0.177C0.328,-0.232 0.347,-0.289 0.386,-0.347C0.245,-0.373 0.175,-0.429 0.175,-0.514C0.175,-0.565 0.201,-0.607 0.253,-0.642C0.306,-0.676 0.371,-0.693 0.449,-0.693C0.558,-0.693 0.668,-0.657 0.78,-0.584C0.799,-0.588 0.819,-0.59 0.839,-0.59C0.904,-0.59 0.936,-0.574 0.936,-0.542ZM0.928,-0.542C0.928,-0.569 0.902,-0.582 0.85,-0.582C0.834,-0.582 0.814,-0.58 0.792,-0.575C0.831,-0.549 0.863,-0.517 0.888,-0.482C0.915,-0.505 0.928,-0.525 0.928,-0.542ZM0.881,-0.477C0.856,-0.513 0.822,-0.545 0.78,-0.573C0.719,-0.557 0.66,-0.528 0.602,-0.488C0.544,-0.447 0.496,-0.401 0.459,-0.349C0.527,-0.349 0.602,-0.362 0.685,-0.386C0.767,-0.411 0.833,-0.442 0.881,-0.477ZM0.766,-0.582C0.667,-0.639 0.562,-0.668 0.45,-0.668C0.381,-0.668 0.321,-0.652 0.269,-0.619C0.218,-0.587 0.192,-0.549 0.192,-0.505C0.192,-0.427 0.258,-0.377 0.39,-0.354C0.472,-0.468 0.597,-0.544 0.766,-0.582Z" style="fill:rgb(47,79,79);fill-rule:nonzero;"/>
            </g>
        </g>
        <g transform="matrix(1.46287,0,0,1.46287,-210.987,-51.3619)">
            <g transform="matrix(45.8333,0,0,45.8333,330.803,312.698)">
                <path d="M0.618,-0L0.568,-0L0.568,-0.351L0.151,-0.351L0.151,-0L0.101,-0L0.101,-0.714L0.151,-0.714L0.151,-0.397L0.568,-0.397L0.568,-0.714L0.618,-0.714L0.618,-0Z" style="fill-rule:nonzero;"/>
            </g>
            <g transform="matrix(45.8333,0,0,45.8333,363.768,312.698)">
                <path d="M0.303,0.01C0.226,0.01 0.166,-0.014 0.123,-0.062C0.08,-0.109 0.058,-0.176 0.058,-0.261C0.058,-0.346 0.079,-0.414 0.121,-0.465C0.162,-0.516 0.218,-0.541 0.289,-0.541C0.352,-0.541 0.401,-0.519 0.437,-0.476C0.473,-0.432 0.491,-0.373 0.491,-0.298L0.491,-0.259L0.109,-0.259C0.11,-0.186 0.127,-0.13 0.16,-0.092C0.193,-0.053 0.241,-0.034 0.303,-0.034C0.333,-0.034 0.36,-0.036 0.383,-0.041C0.406,-0.045 0.435,-0.054 0.47,-0.068L0.47,-0.024C0.44,-0.011 0.413,-0.002 0.387,0.003C0.362,0.007 0.334,0.01 0.303,0.01ZM0.289,-0.498C0.238,-0.498 0.197,-0.481 0.166,-0.448C0.135,-0.414 0.117,-0.365 0.112,-0.302L0.44,-0.302C0.44,-0.363 0.427,-0.411 0.4,-0.446C0.373,-0.481 0.336,-0.498 0.289,-0.498ZM0.221,-0.614C0.244,-0.639 0.268,-0.667 0.291,-0.698C0.315,-0.728 0.33,-0.75 0.339,-0.766L0.408,-0.766L0.408,-0.758C0.396,-0.741 0.376,-0.718 0.348,-0.69C0.32,-0.662 0.289,-0.634 0.255,-0.606L0.221,-0.606L0.221,-0.614Z" style="fill-rule:nonzero;"/>
            </g>
            <g transform="matrix(45.8333,0,0,45.8333,388.922,312.698)">
                <rect x="0.089" y="-0.76" width="0.048" height="0.76" style="fill-rule:nonzero;"/>
            </g>
            <g transform="matrix(45.8333,0,0,45.8333,399.284,312.698)">
                <path d="M0.303,0.01C0.226,0.01 0.166,-0.014 0.123,-0.062C0.08,-0.109 0.058,-0.176 0.058,-0.261C0.058,-0.346 0.079,-0.414 0.121,-0.465C0.162,-0.516 0.218,-0.541 0.289,-0.541C0.352,-0.541 0.401,-0.519 0.437,-0.476C0.473,-0.432 0.491,-0.373 0.491,-0.298L0.491,-0.259L0.109,-0.259C0.11,-0.186 0.127,-0.13 0.16,-0.092C0.193,-0.053 0.241,-0.034 0.303,-0.034C0.333,-0.034 0.36,-0.036 0.383,-0.041C0.406,-0.045 0.435,-0.054 0.47,-0.068L0.47,-0.024C0.44,-0.011 0.413,-0.002 0.387,0.003C0.362,0.007 0.334,0.01 0.303,0.01ZM0.289,-0.498C0.238,-0.498 0.197,-0.481 0.166,-0.448C0.135,-0.414 0.117,-0.365 0.112,-0.302L0.44,-0.302C0.44,-0.363 0.427,-0.411 0.4,-0.446C0.373,-0.481 0.336,-0.498 0.289,-0.498ZM0.334,-0.606L0.301,-0.606C0.27,-0.632 0.239,-0.66 0.209,-0.69C0.179,-0.72 0.158,-0.743 0.147,-0.758L0.147,-0.766L0.217,-0.766C0.225,-0.75 0.241,-0.727 0.265,-0.697C0.288,-0.666 0.312,-0.639 0.334,-0.614L0.334,-0.606Z" style="fill-rule:nonzero;"/>
            </g>
            <g transform="matrix(45.8333,0,0,45.8333,424.439,312.698)">
                <path d="M0.459,-0L0.459,-0.344C0.459,-0.398 0.448,-0.436 0.425,-0.461C0.403,-0.485 0.368,-0.497 0.321,-0.497C0.257,-0.497 0.211,-0.481 0.181,-0.449C0.152,-0.417 0.137,-0.365 0.137,-0.293L0.137,-0L0.089,-0L0.089,-0.531L0.13,-0.531L0.139,-0.458L0.142,-0.458C0.177,-0.513 0.238,-0.541 0.326,-0.541C0.447,-0.541 0.507,-0.476 0.507,-0.347L0.507,-0L0.459,-0Z" style="fill-rule:nonzero;"/>
            </g>
            <g transform="matrix(45.8333,0,0,45.8333,451.473,312.698)">
                <path d="M0.303,0.01C0.226,0.01 0.166,-0.014 0.123,-0.062C0.08,-0.109 0.058,-0.176 0.058,-0.261C0.058,-0.346 0.079,-0.414 0.121,-0.465C0.162,-0.516 0.218,-0.541 0.289,-0.541C0.352,-0.541 0.401,-0.519 0.437,-0.476C0.473,-0.432 0.491,-0.373 0.491,-0.298L0.491,-0.259L0.109,-0.259C0.11,-0.186 0.127,-0.13 0.16,-0.092C0.193,-0.053 0.241,-0.034 0.303,-0.034C0.333,-0.034 0.36,-0.036 0.383,-0.041C0.406,-0.045 0.435,-0.054 0.47,-0.068L0.47,-0.024C0.44,-0.011 0.413,-0.002 0.387,0.003C0.362,0.007 0.334,0.01 0.303,0.01ZM0.289,-0.498C0.238,-0.498 0.197,-0.481 0.166,-0.448C0.135,-0.414 0.117,-0.365 0.112,-0.302L0.44,-0.302C0.44,-0.363 0.427,-0.411 0.4,-0.446C0.373,-0.481 0.336,-0.498 0.289,-0.498Z" style="fill-rule:nonzero;"/>
            </g>
            <g transform="matrix(45.8333,0,0,45.8333,330.803,358.531)">
                <path d="M0.398,-0.624C0.331,-0.624 0.278,-0.6 0.24,-0.553C0.201,-0.505 0.182,-0.44 0.182,-0.356C0.182,-0.268 0.201,-0.202 0.238,-0.157C0.274,-0.112 0.328,-0.09 0.398,-0.09C0.428,-0.09 0.458,-0.093 0.486,-0.099C0.514,-0.105 0.544,-0.113 0.574,-0.122L0.574,-0.022C0.518,-0.001 0.455,0.01 0.384,0.01C0.279,0.01 0.199,-0.022 0.143,-0.085C0.087,-0.149 0.059,-0.239 0.059,-0.357C0.059,-0.431 0.073,-0.496 0.1,-0.552C0.127,-0.607 0.166,-0.65 0.218,-0.68C0.269,-0.709 0.33,-0.724 0.399,-0.724C0.472,-0.724 0.539,-0.709 0.601,-0.678L0.559,-0.581C0.535,-0.592 0.51,-0.602 0.483,-0.611C0.456,-0.62 0.428,-0.624 0.398,-0.624Z" style="fill-rule:nonzero;"/>
            </g>
            <g transform="matrix(45.8333,0,0,45.8333,359.851,358.531)">
                <path d="M0.557,-0L0.442,-0L0.442,-0.332C0.442,-0.374 0.434,-0.405 0.417,-0.425C0.4,-0.446 0.373,-0.456 0.337,-0.456C0.289,-0.456 0.253,-0.442 0.231,-0.413C0.208,-0.384 0.197,-0.336 0.197,-0.268L0.197,-0L0.082,-0L0.082,-0.76L0.197,-0.76L0.197,-0.567C0.197,-0.536 0.195,-0.503 0.191,-0.468L0.198,-0.468C0.214,-0.494 0.236,-0.514 0.263,-0.528C0.291,-0.543 0.324,-0.55 0.361,-0.55C0.492,-0.55 0.557,-0.484 0.557,-0.352L0.557,-0Z" style="fill-rule:nonzero;"/>
            </g>
            <g transform="matrix(45.8333,0,0,45.8333,388.945,358.531)">
                <path d="M0.42,-0L0.397,-0.075L0.393,-0.075C0.367,-0.042 0.341,-0.02 0.314,-0.008C0.288,0.004 0.254,0.01 0.213,0.01C0.16,0.01 0.118,-0.005 0.089,-0.033C0.059,-0.062 0.044,-0.102 0.044,-0.155C0.044,-0.21 0.065,-0.252 0.106,-0.281C0.147,-0.309 0.21,-0.325 0.295,-0.327L0.388,-0.33L0.388,-0.359C0.388,-0.393 0.38,-0.419 0.364,-0.436C0.348,-0.453 0.323,-0.462 0.289,-0.462C0.261,-0.462 0.235,-0.458 0.209,-0.45C0.184,-0.442 0.16,-0.432 0.136,-0.421L0.099,-0.503C0.128,-0.518 0.16,-0.53 0.195,-0.538C0.23,-0.546 0.263,-0.55 0.294,-0.55C0.363,-0.55 0.414,-0.535 0.449,-0.505C0.484,-0.475 0.502,-0.428 0.502,-0.364L0.502,-0L0.42,-0ZM0.249,-0.078C0.291,-0.078 0.324,-0.09 0.349,-0.113C0.375,-0.136 0.387,-0.169 0.387,-0.211L0.387,-0.258L0.318,-0.255C0.264,-0.253 0.225,-0.244 0.2,-0.228C0.175,-0.212 0.163,-0.187 0.163,-0.154C0.163,-0.13 0.17,-0.111 0.185,-0.098C0.199,-0.085 0.22,-0.078 0.249,-0.078Z" style="fill-rule:nonzero;"/>
            </g>
            <g transform="matrix(45.8333,0,0,45.8333,415.532,358.531)">
                <path d="M0.557,-0L0.442,-0L0.442,-0.332C0.442,-0.374 0.434,-0.405 0.417,-0.425C0.4,-0.446 0.373,-0.456 0.337,-0.456C0.288,-0.456 0.253,-0.442 0.23,-0.413C0.208,-0.384 0.197,-0.336 0.197,-0.269L0.197,-0L0.082,-0L0.082,-0.54L0.172,-0.54L0.188,-0.469L0.194,-0.469C0.21,-0.495 0.233,-0.515 0.263,-0.529C0.293,-0.543 0.326,-0.55 0.363,-0.55C0.492,-0.55 0.557,-0.484 0.557,-0.352L0.557,-0Z" style="fill-rule:nonzero;"/>
            </g>
            <g transform="matrix(45.8333,0,0,45.8333,444.625,358.531)">
                <path d="M0.283,-0.083C0.311,-0.083 0.339,-0.087 0.367,-0.096L0.367,-0.01C0.354,-0.004 0.338,0 0.318,0.004C0.298,0.008 0.277,0.01 0.256,0.01C0.147,0.01 0.093,-0.048 0.093,-0.162L0.093,-0.453L0.019,-0.453L0.019,-0.504L0.098,-0.546L0.137,-0.66L0.208,-0.66L0.208,-0.54L0.362,-0.54L0.362,-0.453L0.208,-0.453L0.208,-0.164C0.208,-0.136 0.215,-0.116 0.229,-0.103C0.243,-0.09 0.261,-0.083 0.283,-0.083Z" style="fill-rule:nonzero;"/>
            </g>
            <g transform="matrix(45.8333,0,0,45.8333,462.64,358.531)">
                <path d="M0.318,0.01C0.234,0.01 0.168,-0.015 0.121,-0.064C0.073,-0.113 0.05,-0.18 0.05,-0.266C0.05,-0.354 0.072,-0.424 0.116,-0.474C0.16,-0.525 0.22,-0.55 0.297,-0.55C0.368,-0.55 0.424,-0.528 0.466,-0.485C0.507,-0.442 0.528,-0.382 0.528,-0.306L0.528,-0.244L0.168,-0.244C0.17,-0.192 0.184,-0.151 0.21,-0.123C0.237,-0.095 0.275,-0.081 0.323,-0.081C0.355,-0.081 0.385,-0.084 0.412,-0.09C0.44,-0.096 0.469,-0.106 0.501,-0.12L0.501,-0.027C0.473,-0.014 0.445,-0.004 0.416,0.001C0.387,0.007 0.355,0.01 0.318,0.01ZM0.297,-0.463C0.26,-0.463 0.231,-0.451 0.209,-0.428C0.187,-0.405 0.174,-0.371 0.17,-0.327L0.415,-0.327C0.414,-0.372 0.404,-0.406 0.383,-0.428C0.362,-0.451 0.333,-0.463 0.297,-0.463Z" style="fill-rule:nonzero;"/>
            </g>
            <g transform="matrix(45.8333,0,0,45.8333,489.048,358.531)">
                <path d="M0.356,0.01C0.288,0.01 0.235,-0.015 0.197,-0.064L0.19,-0.064C0.194,-0.018 0.197,0.009 0.197,0.019L0.197,0.24L0.082,0.24L0.082,-0.54L0.175,-0.54C0.177,-0.53 0.183,-0.506 0.191,-0.468L0.197,-0.468C0.233,-0.522 0.286,-0.55 0.358,-0.55C0.425,-0.55 0.478,-0.525 0.515,-0.477C0.553,-0.428 0.572,-0.359 0.572,-0.271C0.572,-0.183 0.553,-0.114 0.514,-0.064C0.476,-0.015 0.423,0.01 0.356,0.01ZM0.328,-0.456C0.283,-0.456 0.249,-0.443 0.228,-0.416C0.207,-0.389 0.197,-0.347 0.197,-0.288L0.197,-0.271C0.197,-0.205 0.207,-0.158 0.228,-0.128C0.249,-0.099 0.283,-0.084 0.33,-0.084C0.37,-0.084 0.4,-0.1 0.422,-0.133C0.443,-0.165 0.454,-0.212 0.454,-0.272C0.454,-0.333 0.443,-0.378 0.422,-0.409C0.401,-0.441 0.369,-0.456 0.328,-0.456Z" style="fill-rule:nonzero;"/>
            </g>
            <g transform="matrix(45.8333,0,0,45.8333,517.605,358.531)">
                <path d="M0.197,-0L0.082,-0L0.082,-0.54L0.197,-0.54L0.197,-0ZM0.075,-0.683C0.075,-0.704 0.081,-0.719 0.092,-0.73C0.103,-0.742 0.119,-0.747 0.14,-0.747C0.16,-0.747 0.176,-0.742 0.187,-0.73C0.198,-0.719 0.204,-0.704 0.204,-0.683C0.204,-0.664 0.198,-0.648 0.187,-0.637C0.176,-0.626 0.16,-0.62 0.14,-0.62C0.119,-0.62 0.103,-0.626 0.092,-0.637C0.081,-0.648 0.075,-0.664 0.075,-0.683Z" style="fill-rule:nonzero;"/>
            </g>
            <g transform="matrix(45.8333,0,0,45.8333,530.383,358.531)">
                <path d="M0.318,0.01C0.234,0.01 0.168,-0.015 0.121,-0.064C0.073,-0.113 0.05,-0.18 0.05,-0.266C0.05,-0.354 0.072,-0.424 0.116,-0.474C0.16,-0.525 0.22,-0.55 0.297,-0.55C0.368,-0.55 0.424,-0.528 0.466,-0.485C0.507,-0.442 0.528,-0.382 0.528,-0.306L0.528,-0.244L0.168,-0.244C0.17,-0.192 0.184,-0.151 0.21,-0.123C0.237,-0.095 0.275,-0.081 0.323,-0.081C0.355,-0.081 0.385,-0.084 0.412,-0.09C0.44,-0.096 0.469,-0.106 0.501,-0.12L0.501,-0.027C0.473,-0.014 0.445,-0.004 0.416,0.001C0.387,0.007 0.355,0.01 0.318,0.01ZM0.297,-0.463C0.26,-0.463 0.231,-0.451 0.209,-0.428C0.187,-0.405 0.174,-0.371 0.17,-0.327L0.415,-0.327C0.414,-0.372 0.404,-0.406 0.383,-0.428C0.362,-0.451 0.333,-0.463 0.297,-0.463Z" style="fill-rule:nonzero;"/>
            </g>
        </g>
        <g transform="matrix(3.82074,0,0,3.82074,-984.356,-691.241)">
            <g transform="matrix(4.16667,0,0,4.16667,330.803,312.698)">
                <path d="M-0.016,0.18C-0.046,0.18 -0.071,0.176 -0.09,0.167L-0.09,0.124C-0.064,0.131 -0.04,0.134 -0.017,0.134C0.062,0.134 0.101,0.091 0.101,0.005L0.101,-0.714L0.151,-0.714L0.151,-0C0.151,0.12 0.095,0.18 -0.016,0.18Z" style="fill-rule:nonzero;"/>
            </g>
            <g transform="matrix(4.16667,0,0,4.16667,332.29,312.698)">
                <path d="M0.491,-0L0.101,-0L0.101,-0.714L0.491,-0.714L0.491,-0.668L0.151,-0.668L0.151,-0.398L0.472,-0.398L0.472,-0.352L0.151,-0.352L0.151,-0.046L0.491,-0.046L0.491,-0Z" style="fill-rule:nonzero;"/>
            </g>
            <g transform="matrix(4.16667,0,0,4.16667,336.588,312.698)">
                <path d="M0.495,-0.184C0.495,-0.125 0.473,-0.077 0.429,-0.042C0.386,-0.008 0.327,0.01 0.255,0.01C0.168,0.01 0.101,0 0.054,-0.019L0.054,-0.069C0.106,-0.047 0.171,-0.036 0.251,-0.036C0.31,-0.036 0.356,-0.05 0.39,-0.076C0.425,-0.103 0.442,-0.139 0.442,-0.182C0.442,-0.209 0.436,-0.232 0.425,-0.249C0.413,-0.267 0.395,-0.283 0.369,-0.298C0.343,-0.313 0.306,-0.328 0.256,-0.345C0.183,-0.37 0.133,-0.397 0.105,-0.427C0.077,-0.456 0.063,-0.494 0.063,-0.543C0.063,-0.596 0.084,-0.64 0.126,-0.674C0.168,-0.707 0.221,-0.724 0.287,-0.724C0.354,-0.724 0.417,-0.711 0.476,-0.686L0.458,-0.643C0.399,-0.668 0.342,-0.68 0.288,-0.68C0.235,-0.68 0.193,-0.668 0.162,-0.644C0.131,-0.619 0.115,-0.586 0.115,-0.544C0.115,-0.518 0.12,-0.496 0.13,-0.479C0.139,-0.462 0.155,-0.447 0.177,-0.433C0.199,-0.42 0.236,-0.404 0.289,-0.385C0.345,-0.366 0.387,-0.347 0.415,-0.329C0.443,-0.311 0.463,-0.29 0.476,-0.267C0.489,-0.244 0.495,-0.217 0.495,-0.184Z" style="fill-rule:nonzero;"/>
            </g>
            <g transform="matrix(4.16667,0,0,4.16667,339.317,312.698)">
                <path d="M0.626,-0.714L0.626,-0.252C0.626,-0.17 0.602,-0.106 0.555,-0.06C0.507,-0.013 0.441,0.01 0.356,0.01C0.273,0.01 0.209,-0.013 0.162,-0.06C0.116,-0.106 0.093,-0.171 0.093,-0.254L0.093,-0.714L0.143,-0.714L0.143,-0.252C0.143,-0.183 0.162,-0.13 0.2,-0.092C0.238,-0.053 0.292,-0.034 0.362,-0.034C0.43,-0.034 0.483,-0.053 0.52,-0.091C0.557,-0.128 0.576,-0.18 0.576,-0.247L0.576,-0.714L0.626,-0.714Z" style="fill-rule:nonzero;"/>
            </g>
            <g transform="matrix(4.16667,0,0,4.16667,342.772,312.698)">
                <rect x="0.101" y="-0.714" width="0.05" height="0.714" style="fill-rule:nonzero;"/>
            </g>
            <g transform="matrix(4.16667,0,0,4.16667,344.28,312.698)">
                <path d="M0.495,-0.184C0.495,-0.125 0.473,-0.077 0.429,-0.042C0.386,-0.008 0.327,0.01 0.255,0.01C0.168,0.01 0.101,0 0.054,-0.019L0.054,-0.069C0.106,-0.047 0.171,-0.036 0.251,-0.036C0.31,-0.036 0.356,-0.05 0.39,-0.076C0.425,-0.103 0.442,-0.139 0.442,-0.182C0.442,-0.209 0.436,-0.232 0.425,-0.249C0.413,-0.267 0.395,-0.283 0.369,-0.298C0.343,-0.313 0.306,-0.328 0.256,-0.345C0.183,-0.37 0.133,-0.397 0.105,-0.427C0.077,-0.456 0.063,-0.494 0.063,-0.543C0.063,-0.596 0.084,-0.64 0.126,-0.674C0.168,-0.707 0.221,-0.724 0.287,-0.724C0.354,-0.724 0.417,-0.711 0.476,-0.686L0.458,-0.643C0.399,-0.668 0.342,-0.68 0.288,-0.68C0.235,-0.68 0.193,-0.668 0.162,-0.644C0.131,-0.619 0.115,-0.586 0.115,-0.544C0.115,-0.518 0.12,-0.496 0.13,-0.479C0.139,-0.462 0.155,-0.447 0.177,-0.433C0.199,-0.42 0.236,-0.404 0.289,-0.385C0.345,-0.366 0.387,-0.347 0.415,-0.329C0.443,-0.311 0.463,-0.29 0.476,-0.267C0.489,-0.244 0.495,-0.217 0.495,-0.184Z" style="fill-rule:nonzero;"/>
            </g>
            <g transform="matrix(4.16667,0,0,4.16667,348.55,312.698)">
                <path d="M0.701,-0.358C0.701,-0.262 0.681,-0.183 0.64,-0.12C0.599,-0.058 0.542,-0.018 0.469,-0L0.632,0.17L0.551,0.17L0.413,0.009L0.397,0.01L0.382,0.01C0.283,0.01 0.205,-0.023 0.148,-0.089C0.091,-0.155 0.063,-0.245 0.063,-0.359C0.063,-0.472 0.092,-0.562 0.149,-0.627C0.206,-0.692 0.284,-0.725 0.383,-0.725C0.482,-0.725 0.56,-0.692 0.617,-0.627C0.673,-0.561 0.701,-0.472 0.701,-0.358ZM0.117,-0.358C0.117,-0.256 0.14,-0.177 0.186,-0.121C0.231,-0.065 0.297,-0.037 0.382,-0.037C0.468,-0.037 0.533,-0.065 0.579,-0.12C0.624,-0.175 0.647,-0.255 0.647,-0.358C0.647,-0.461 0.624,-0.54 0.579,-0.594C0.533,-0.649 0.468,-0.677 0.383,-0.677C0.298,-0.677 0.232,-0.649 0.186,-0.594C0.14,-0.538 0.117,-0.46 0.117,-0.358Z" style="fill-rule:nonzero;"/>
            </g>
            <g transform="matrix(4.16667,0,0,4.16667,352.192,312.698)">
                <path d="M0.626,-0.714L0.626,-0.252C0.626,-0.17 0.602,-0.106 0.555,-0.06C0.507,-0.013 0.441,0.01 0.356,0.01C0.273,0.01 0.209,-0.013 0.162,-0.06C0.116,-0.106 0.093,-0.171 0.093,-0.254L0.093,-0.714L0.143,-0.714L0.143,-0.252C0.143,-0.183 0.162,-0.13 0.2,-0.092C0.238,-0.053 0.292,-0.034 0.362,-0.034C0.43,-0.034 0.483,-0.053 0.52,-0.091C0.557,-0.128 0.576,-0.18 0.576,-0.247L0.576,-0.714L0.626,-0.714Z" style="fill-rule:nonzero;"/>
            </g>
            <g transform="matrix(4.16667,0,0,4.16667,355.647,312.698)">
                <path d="M0.491,-0L0.101,-0L0.101,-0.714L0.491,-0.714L0.491,-0.668L0.151,-0.668L0.151,-0.398L0.472,-0.398L0.472,-0.352L0.151,-0.352L0.151,-0.046L0.491,-0.046L0.491,-0Z" style="fill-rule:nonzero;"/>
            </g>
            <g transform="matrix(4.16667,0,0,4.16667,358.405,312.698)">
                <path d="M0.101,-0L0.101,-0.714L0.151,-0.714L0.151,-0.047L0.491,-0.047L0.491,-0L0.101,-0Z" style="fill-rule:nonzero;"/>
            </g>
            <g transform="matrix(4.16667,0,0,4.16667,361.001,312.698)">
                <path d="M0.701,-0.358C0.701,-0.262 0.681,-0.183 0.64,-0.12C0.599,-0.058 0.542,-0.018 0.469,-0L0.632,0.17L0.551,0.17L0.413,0.009L0.397,0.01L0.382,0.01C0.283,0.01 0.205,-0.023 0.148,-0.089C0.091,-0.155 0.063,-0.245 0.063,-0.359C0.063,-0.472 0.092,-0.562 0.149,-0.627C0.206,-0.692 0.284,-0.725 0.383,-0.725C0.482,-0.725 0.56,-0.692 0.617,-0.627C0.673,-0.561 0.701,-0.472 0.701,-0.358ZM0.117,-0.358C0.117,-0.256 0.14,-0.177 0.186,-0.121C0.231,-0.065 0.297,-0.037 0.382,-0.037C0.468,-0.037 0.533,-0.065 0.579,-0.12C0.624,-0.175 0.647,-0.255 0.647,-0.358C0.647,-0.461 0.624,-0.54 0.579,-0.594C0.533,-0.649 0.468,-0.677 0.383,-0.677C0.298,-0.677 0.232,-0.649 0.186,-0.594C0.14,-0.538 0.117,-0.46 0.117,-0.358Z" style="fill-rule:nonzero;"/>
            </g>
            <g transform="matrix(4.16667,0,0,4.16667,364.644,312.698)">
                <path d="M0.626,-0.714L0.626,-0.252C0.626,-0.17 0.602,-0.106 0.555,-0.06C0.507,-0.013 0.441,0.01 0.356,0.01C0.273,0.01 0.209,-0.013 0.162,-0.06C0.116,-0.106 0.093,-0.171 0.093,-0.254L0.093,-0.714L0.143,-0.714L0.143,-0.252C0.143,-0.183 0.162,-0.13 0.2,-0.092C0.238,-0.053 0.292,-0.034 0.362,-0.034C0.43,-0.034 0.483,-0.053 0.52,-0.091C0.557,-0.128 0.576,-0.18 0.576,-0.247L0.576,-0.714L0.626,-0.714Z" style="fill-rule:nonzero;"/>
            </g>
            <g transform="matrix(4.16667,0,0,4.16667,368.099,312.698)">
                <path d="M0.127,-0.714L0.111,-0.456L0.081,-0.456L0.065,-0.714L0.127,-0.714Z" style="fill-rule:nonzero;"/>
            </g>
            <g transform="matrix(4.16667,0,0,4.16667,369.357,312.698)">
                <path d="M0.626,-0.714L0.626,-0.252C0.626,-0.17 0.602,-0.106 0.555,-0.06C0.507,-0.013 0.441,0.01 0.356,0.01C0.273,0.01 0.209,-0.013 0.162,-0.06C0.116,-0.106 0.093,-0.171 0.093,-0.254L0.093,-0.714L0.143,-0.714L0.143,-0.252C0.143,-0.183 0.162,-0.13 0.2,-0.092C0.238,-0.053 0.292,-0.034 0.362,-0.034C0.43,-0.034 0.483,-0.053 0.52,-0.091C0.557,-0.128 0.576,-0.18 0.576,-0.247L0.576,-0.714L0.626,-0.714Z" style="fill-rule:nonzero;"/>
            </g>
            <g transform="matrix(4.16667,0,0,4.16667,372.812,312.698)">
                <path d="M0.62,-0L0.57,-0L0.147,-0.634L0.143,-0.634C0.147,-0.558 0.149,-0.501 0.149,-0.463L0.149,-0L0.101,-0L0.101,-0.714L0.151,-0.714L0.573,-0.081L0.576,-0.081C0.573,-0.14 0.572,-0.195 0.572,-0.248L0.572,-0.714L0.62,-0.714L0.62,-0Z" style="fill-rule:nonzero;"/>
            </g>
            <g transform="matrix(4.16667,0,0,4.16667,377.816,312.698)">
                <path d="M0.643,-0.364C0.643,-0.244 0.612,-0.153 0.549,-0.092C0.486,-0.031 0.394,-0 0.272,-0L0.101,-0L0.101,-0.714L0.294,-0.714C0.408,-0.714 0.495,-0.684 0.554,-0.625C0.613,-0.565 0.643,-0.478 0.643,-0.364ZM0.589,-0.362C0.589,-0.464 0.563,-0.541 0.511,-0.593C0.459,-0.644 0.383,-0.67 0.282,-0.67L0.151,-0.67L0.151,-0.044L0.269,-0.044C0.482,-0.044 0.589,-0.15 0.589,-0.362Z" style="fill-rule:nonzero;"/>
            </g>
            <g transform="matrix(4.16667,0,0,4.16667,381.216,312.698)">
                <path d="M0.491,-0L0.101,-0L0.101,-0.714L0.491,-0.714L0.491,-0.668L0.151,-0.668L0.151,-0.398L0.472,-0.398L0.472,-0.352L0.151,-0.352L0.151,-0.046L0.491,-0.046L0.491,-0Z" style="fill-rule:nonzero;"/>
            </g>
            <g transform="matrix(4.16667,0,0,4.16667,385.514,312.698)">
                <path d="M0.415,-0L0.149,-0.659L0.145,-0.659C0.148,-0.619 0.149,-0.577 0.149,-0.535L0.149,-0L0.101,-0L0.101,-0.714L0.178,-0.714L0.431,-0.086L0.434,-0.086L0.687,-0.714L0.762,-0.714L0.762,-0L0.712,-0L0.712,-0.541C0.712,-0.579 0.714,-0.618 0.718,-0.658L0.714,-0.658L0.447,-0L0.415,-0Z" style="fill-rule:nonzero;"/>
            </g>
            <g transform="matrix(4.16667,0,0,4.16667,389.567,312.698)">
                <path d="M0.491,-0L0.101,-0L0.101,-0.714L0.491,-0.714L0.491,-0.668L0.151,-0.668L0.151,-0.398L0.472,-0.398L0.472,-0.352L0.151,-0.352L0.151,-0.046L0.491,-0.046L0.491,-0Z" style="fill-rule:nonzero;"/>
            </g>
            <g transform="matrix(4.16667,0,0,4.16667,392.325,312.698)">
                <path d="M0.151,-0.311L0.151,-0L0.101,-0L0.101,-0.714L0.271,-0.714C0.36,-0.714 0.425,-0.698 0.467,-0.665C0.51,-0.632 0.531,-0.583 0.531,-0.517C0.531,-0.469 0.518,-0.429 0.493,-0.396C0.468,-0.363 0.429,-0.34 0.378,-0.325L0.572,-0L0.512,-0L0.328,-0.311L0.151,-0.311ZM0.151,-0.354L0.287,-0.354C0.347,-0.354 0.394,-0.367 0.427,-0.394C0.46,-0.421 0.477,-0.461 0.477,-0.513C0.477,-0.568 0.461,-0.607 0.428,-0.632C0.396,-0.657 0.343,-0.669 0.269,-0.669L0.151,-0.669L0.151,-0.354Z" style="fill-rule:nonzero;"/>
            </g>
            <g transform="matrix(4.16667,0,0,4.16667,395.259,312.698)">
                <path d="M0.523,-0.714L0.577,-0.714L0.31,-0L0.266,-0L0,-0.714L0.053,-0.714L0.233,-0.228C0.26,-0.155 0.279,-0.1 0.288,-0.063C0.295,-0.087 0.307,-0.125 0.327,-0.177L0.523,-0.714Z" style="fill-rule:nonzero;"/>
            </g>
            <g transform="matrix(4.16667,0,0,4.16667,398.122,312.698)">
                <path d="M0.491,-0L0.101,-0L0.101,-0.714L0.491,-0.714L0.491,-0.668L0.151,-0.668L0.151,-0.398L0.472,-0.398L0.472,-0.352L0.151,-0.352L0.151,-0.046L0.491,-0.046L0.491,-0Z" style="fill-rule:nonzero;"/>
            </g>
            <g transform="matrix(4.16667,0,0,4.16667,400.88,312.698)">
                <rect x="0.101" y="-0.714" width="0.05" height="0.714" style="fill-rule:nonzero;"/>
            </g>
            <g transform="matrix(4.16667,0,0,4.16667,402.388,312.698)">
                <path d="M0.101,-0L0.101,-0.714L0.151,-0.714L0.151,-0.047L0.491,-0.047L0.491,-0L0.101,-0Z" style="fill-rule:nonzero;"/>
            </g>
            <g transform="matrix(4.16667,0,0,4.16667,404.984,312.698)">
                <path d="M0.101,-0L0.101,-0.714L0.151,-0.714L0.151,-0.047L0.491,-0.047L0.491,-0L0.101,-0Z" style="fill-rule:nonzero;"/>
            </g>
            <g transform="matrix(4.16667,0,0,4.16667,407.581,312.698)">
                <path d="M0.491,-0L0.101,-0L0.101,-0.714L0.491,-0.714L0.491,-0.668L0.151,-0.668L0.151,-0.398L0.472,-0.398L0.472,-0.352L0.151,-0.352L0.151,-0.046L0.491,-0.046L0.491,-0Z" style="fill-rule:nonzero;"/>
            </g>
            <g transform="matrix(4.16667,0,0,4.16667,410.338,312.698)">
                <path d="M0.626,-0.714L0.626,-0.252C0.626,-0.17 0.602,-0.106 0.555,-0.06C0.507,-0.013 0.441,0.01 0.356,0.01C0.273,0.01 0.209,-0.013 0.162,-0.06C0.116,-0.106 0.093,-0.171 0.093,-0.254L0.093,-0.714L0.143,-0.714L0.143,-0.252C0.143,-0.183 0.162,-0.13 0.2,-0.092C0.238,-0.053 0.292,-0.034 0.362,-0.034C0.43,-0.034 0.483,-0.053 0.52,-0.091C0.557,-0.128 0.576,-0.18 0.576,-0.247L0.576,-0.714L0.626,-0.714Z" style="fill-rule:nonzero;"/>
            </g>
            <g transform="matrix(4.16667,0,0,4.16667,413.793,312.698)">
                <path d="M0.538,-0L0.481,-0L0.27,-0.333L0.055,-0L0,-0L0.24,-0.372L0.022,-0.714L0.078,-0.714L0.271,-0.408L0.467,-0.714L0.52,-0.714L0.299,-0.373L0.538,-0Z" style="fill-rule:nonzero;"/>
            </g>
        </g>
    </g>
</svg>
