<?xml version="1.0" encoding="UTF-8" standalone="no"?>
<!DOCTYPE svg PUBLIC "-//W3C//DTD SVG 1.1//EN" "http://www.w3.org/Graphics/SVG/1.1/DTD/svg11.dtd">
<svg width="100%" height="100%" viewBox="0 0 308 438" version="1.1" xmlns="http://www.w3.org/2000/svg" xmlns:xlink="http://www.w3.org/1999/xlink" xml:space="preserve" xmlns:serif="http://www.serif.com/" style="fill-rule:evenodd;clip-rule:evenodd;stroke-linecap:round;stroke-linejoin:round;stroke-miterlimit:1.5;">
    <g transform="matrix(1.40021,0,0,1.40021,-72.0296,-137.453)">
        <path d="M86.871,168.015C86.871,168.015 77.355,186.227 69.972,170.804C69.972,170.804 68.66,187.539 86.379,177.695C86.379,177.695 77.355,194.43 85.066,199.352C85.066,199.352 72.761,210.345 71.285,221.829C71.285,221.829 52.253,250.766 67.347,246.44C67.347,246.44 58.487,273.614 74.894,272.466C75.979,273.46 186.734,365.755 159.656,292.697C159.656,292.697 244.745,288.072 251.964,292.666C251.964,292.666 229.186,283.807 244.608,277.572C258.566,265.594 257.799,257.371 255.303,257.412C255.303,257.412 251.786,231.285 238.661,226.363C238.661,226.363 256.267,209.074 241.173,196.277C226.079,183.479 238.712,176.886 226.52,159.259C226.52,159.259 235.871,131.613 219.793,127.348L183.498,116.191L153.31,120.293L117.871,135.223L96.706,147.364L86.871,168.015Z" style="fill:rgb(73,44,27);"/>
        <path d="M214.452,256.045L131.161,260.967L110.422,294.242L234.755,294.242L214.452,256.045Z" style="fill:rgb(18,18,18);"/>
        <g transform="matrix(0.994781,-0.10203,0.234069,2.28215,-77.6557,-487.688)">
            <path d="M228.945,376.655C228.945,375.692 227.153,374.911 224.946,374.911L107.843,374.911C105.636,374.911 103.844,375.692 103.844,376.655C103.844,377.617 105.636,378.398 107.843,378.398L224.946,378.398C227.153,378.398 228.945,377.617 228.945,376.655Z" style="fill:rgb(244,220,186);"/>
        </g>
        <g transform="matrix(1.21791,-0.124915,0.234069,2.28215,-128.329,-467.682)">
            <path d="M228.945,376.655C228.945,375.692 227.481,374.911 225.679,374.911L107.11,374.911C105.307,374.911 103.844,375.692 103.844,376.655C103.844,377.617 105.307,378.398 107.11,378.398L225.679,378.398C227.481,378.398 228.945,377.617 228.945,376.655Z" style="fill:rgb(244,220,186);"/>
        </g>
        <g transform="matrix(1.33384,-0.136805,0.234069,2.28215,-133.577,-451.763)">
            <path d="M228.945,376.655C228.945,375.692 227.609,374.911 225.963,374.911L106.826,374.911C105.18,374.911 103.844,375.692 103.844,376.655C103.844,377.617 105.18,378.398 106.826,378.398L225.963,378.398C227.609,378.398 228.945,377.617 228.945,376.655Z" style="fill:rgb(244,220,186);"/>
        </g>
        <path d="M133.906,277.359L130.461,251.764L213.643,243.725L214.955,275.718L247.769,276.539L257.941,339.377L95.186,350.861" style="fill:rgb(244,220,186);"/>
        <path d="M251.268,272.056L216.814,272.876L208.938,352.449L232.728,358.027L264.721,355.402L267.511,309.135L251.268,272.056Z" style="fill:rgb(62,61,61);"/>
        <g transform="matrix(1,0,0,1,0.817175,-0.473102)">
            <path d="M161.856,129.911C203.516,141.029 211.194,170.206 211.194,170.206C221.128,195.201 214.719,245.831 214.719,245.831C203.594,274.395 175.615,279.111 172.204,279.584L172.209,279.651C172.209,279.651 140.731,281.563 124.395,253.271C124.395,253.271 110.383,204.198 116.411,177.986C116.411,177.986 121.27,147.286 160.788,129.969L160.763,129.625C160.933,129.669 161.103,129.712 161.274,129.757C161.457,129.678 161.642,129.598 161.829,129.519L161.856,129.911Z" style="fill:rgb(252,233,205);"/>
        </g>
        <g transform="matrix(1,0,0,1,1.15503,0.525016)">
            <path d="M165.226,240.075C166.354,235.51 180.315,237.182 182.965,236.178C185.616,235.173 178.985,241.482 178.985,241.482C176.571,248.451 166.663,250.42 166.663,250.42L166.643,250.292C165.236,250.11 155.129,250.333 152.61,246.215C152.61,246.215 143.475,242.435 146.31,242.435C149.133,242.435 160.998,236.416 165.226,240.075Z" style="fill:rgb(173,47,60);"/>
        </g>
        <g transform="matrix(1.29013,0.975081,-0.859504,1.13721,114.928,-157.968)">
            <path d="M124.112,156.723C124.112,156.723 117.344,200.611 107.09,201.637C107.09,201.637 133.136,176.206 130.88,165.132C130.88,165.132 136.417,145.854 126.163,144.623C115.908,143.393 124.112,156.723 124.112,156.723Z" style="fill:rgb(73,44,27);"/>
        </g>
        <path d="M224.688,152.011C224.688,152.011 236.009,130.84 207.133,119.362C207.133,119.362 196.14,116.416 191.382,117.236C191.382,117.236 161.358,106.736 139.045,121.338C139.045,121.338 114.763,132.987 109.348,129.377C109.348,129.377 72.925,140.206 87.691,166.128C87.691,166.128 132.974,148.245 137.568,137.909C137.568,137.909 207.789,160.208 224.688,152.011Z" style="fill:rgb(73,44,27);"/>
        <path d="M77.322,285.837L85.463,278.29L134.027,277.798L134.848,292.728L129.762,322.588L129.269,359.668L104.495,361.636L70.041,359.339L61.181,358.027L65.283,315.041L52.916,301.208L77.322,285.837Z" style="fill:rgb(62,61,61);"/>
        <g transform="matrix(1.16105,0,0,1.16105,141.202,-40.0933)">
            <circle cx="42.018" cy="205.022" r="17.192" style="fill:white;fill-opacity:0.46;stroke:black;stroke-width:0.62px;"/>
        </g>
        <g transform="matrix(1.16105,0,0,1.16105,87.0593,-31.6848)">
            <circle cx="42.018" cy="205.022" r="17.192" style="fill:white;fill-opacity:0.46;stroke:black;stroke-width:0.62px;"/>
        </g>
        <path d="M153.86,197.639C153.86,197.639 159.397,192.717 169.652,194.563L170.138,199.154C170.138,199.154 157.625,197.537 155.835,202.181C154.779,204.921 153.86,197.639 153.86,197.639Z"/>
        <path d="M125.538,269.989L101.194,303.061L145.258,366.154L133.158,271.444L125.538,269.989Z"/>
        <g transform="matrix(-1,0,0,1,348.173,-0.41017)">
            <path d="M125.538,269.989L101.194,303.061L145.258,366.154L133.158,271.444L125.538,269.989Z"/>
        </g>
    </g>
    <g id="Calque1">
    </g>
</svg>
